<svg xmlns="http://www.w3.org/2000/svg" fill="none" viewBox="0 0 25 24" height="24" width="25">
<path fill="white" d="M18.6716 20H6.67163V22H4.67163V20H3.67163C3.11935 20 2.67163 19.5523 2.67163 19V4C2.67163 3.44771 3.11935 3 3.67163 3H21.6716C22.2239 3 22.6716 3.44771 22.6716 4V19C22.6716 19.5523 22.2239 20 21.6716 20H20.6716V22H18.6716V20ZM4.67163 18H20.6716V5H4.67163V18ZM13.6717 13.874V17H11.6717V13.874C9.94641 13.4299 8.67163 11.8638 8.67163 10C8.67163 7.79086 10.4625 6 12.6717 6C14.8808 6 16.6717 7.79086 16.6717 10C16.6717 11.8638 15.3969 13.4299 13.6717 13.874ZM12.6717 12C13.7763 12 14.6717 11.1046 14.6717 10C14.6717 8.89543 13.7763 8 12.6717 8C11.5671 8 10.6717 8.89543 10.6717 10C10.6717 11.1046 11.5671 12 12.6717 12Z"></path>
</svg>
