<svg xmlns="http://www.w3.org/2000/svg" fill="none" viewBox="0 0 25 24" height="24" width="25">
<g clip-path="url(#clip0_4605_10168)">
<path fill="white" d="M5.67163 9.00391C6.22392 9.00391 6.67163 9.45162 6.67163 10.0039C8.3064 10.0039 9.81027 10.5643 11.0017 11.5034L13.1717 11.5039C14.5043 11.5039 15.7016 12.0832 16.5256 13.0036L19.6716 13.0039C21.6639 13.0039 23.3841 14.1692 24.1878 15.8553C21.823 18.9759 17.9936 21.0039 13.6717 21.0039C10.881 21.0039 8.52141 20.4007 6.61075 19.346C6.47232 19.7295 6.10402 20.0039 5.67163 20.0039H2.67163C2.11935 20.0039 1.67163 19.5562 1.67163 19.0039V10.0039C1.67163 9.45162 2.11935 9.00391 2.67163 9.00391H5.67163ZM6.67264 12.0039L6.67163 17.0259L6.71699 17.0584C8.51081 18.3188 10.8498 19.0039 13.6717 19.0039C16.6757 19.0039 19.4703 17.8483 21.5068 15.8745L21.6397 15.7409L21.5205 15.6405C21.0564 15.2775 20.4873 15.0523 19.8767 15.0108L19.6716 15.0039H17.5602C17.6332 15.3255 17.6716 15.6602 17.6716 16.0039V17.0039H8.67163V15.0039L15.4617 15.0029L15.4273 14.9244C15.0468 14.1308 14.2598 13.5692 13.3361 13.5092L13.1717 13.5039L10.2422 13.5038C9.33498 12.5784 8.07087 12.0042 6.67264 12.0039ZM4.67163 11.0039H3.67163V18.0039H4.67163V11.0039ZM18.6716 5.00391C20.3284 5.00391 21.6716 6.34705 21.6716 8.00391C21.6716 9.66076 20.3284 11.0039 18.6716 11.0039C17.0147 11.0039 15.6717 9.66076 15.6717 8.00391C15.6717 6.34705 17.0147 5.00391 18.6716 5.00391ZM18.6716 7.00391C18.1194 7.00391 17.6716 7.45162 17.6716 8.00391C17.6716 8.55619 18.1194 9.00391 18.6716 9.00391C19.2239 9.00391 19.6716 8.55619 19.6716 8.00391C19.6716 7.45162 19.2239 7.00391 18.6716 7.00391ZM11.6717 2.00391C13.3285 2.00391 14.6717 3.34705 14.6717 5.00391C14.6717 6.66076 13.3285 8.00391 11.6717 8.00391C10.0148 8.00391 8.67163 6.66076 8.67163 5.00391C8.67163 3.34705 10.0148 2.00391 11.6717 2.00391ZM11.6717 4.00391C11.1194 4.00391 10.6717 4.45162 10.6717 5.00391C10.6717 5.55619 11.1194 6.00391 11.6717 6.00391C12.224 6.00391 12.6717 5.55619 12.6717 5.00391C12.6717 4.45162 12.224 4.00391 11.6717 4.00391Z"></path>
</g>
<defs>
<clipPath id="clip0_4605_10168">
<rect transform="translate(0.666748)" fill="white" height="24" width="24"></rect>
</clipPath>
</defs>
</svg>
